<svg xmlns="http://www.w3.org/2000/svg" xmlns:xlink="http://www.w3.org/1999/xlink" width="210.0" height="297.0" viewBox="0 0 210 297" version="1.1" id="Layer_1">
  <g>
    <path
       d="m 116.22778,80.967667 a 5.037159,5.037159 0 0 1 -5.03716,5.037159 5.037159,5.037159 0 0 1 -5.03716,-5.037159 5.037159,5.037159 0 0 1 5.03716,-5.037159 5.037159,5.037159 0 0 1 5.03716,5.037159"
       id="path2842"
       fill="#000000"
       strokeWidth="11"
        />
    <path
       d="m 178.91242,110.2578 a 5.0371594,5.0371594 0 0 1 -5.03716,5.03716 5.0371594,5.0371594 0 0 1 -5.03716,-5.03716 5.0371594,5.0371594 0 0 1 5.03716,-5.03716 5.0371594,5.0371594 0 0 1 5.03716,5.03716"
       id="path2842-0"
       fill="#000000"
       strokeWidth="11" />
   <path
       d="m 195.51641,138.8017 a 5.0371594,5.0371594 0 0 1 -5.03716,5.03716 5.0371594,5.0371594 0 0 1 -5.03716,-5.03716 5.0371594,5.0371594 0 0 1 5.03716,-5.03716 5.0371594,5.0371594 0 0 1 5.03716,5.03716"
       id="path2842-8"
       fill="#000000"
       strokeWidth="11" />
    <path
       d="m 201.29979,169.7709 a 5.0371594,5.0371594 0 0 1 -5.03716,5.03716 5.0371594,5.0371594 0 0 1 -5.03716,-5.03716 5.0371594,5.0371594 0 0 1 5.03716,-5.03715 5.0371594,5.0371594 0 0 1 5.03716,5.03715"
       id="path2842-85"
       fill="#000000"
       strokeWidth="11" />
    <path
       d="m 120.39316,260.06665 a 5.0371594,5.0371594 0 0 1 -5.03716,5.03716 5.0371594,5.0371594 0 0 1 -5.03716,-5.03716 5.0371594,5.0371594 0 0 1 5.03716,-5.03716 5.0371594,5.0371594 0 0 1 5.03716,5.03716"
       id="path2842-07"
       fill="#000000"
       strokeWidth="11" />
    <path
       d="m 195.70298,202.04607 a 5.0371594,5.0371594 0 0 1 -5.03716,5.03716 5.0371594,5.0371594 0 0 1 -5.03716,-5.03716 5.0371594,5.0371594 0 0 1 5.03716,-5.03716 5.0371594,5.0371594 0 0 1 5.03716,5.03716"
       id="path2842-04"
       fill="#000000"
       strokeWidth="11" />
    <path
       d="m 180.59151,228.53775 a 5.0371594,5.0371594 0 0 1 -5.03716,5.03716 5.0371594,5.0371594 0 0 1 -5.03716,-5.03716 5.0371594,5.0371594 0 0 1 5.03716,-5.03716 5.0371594,5.0371594 0 0 1 5.03716,5.03716"
       id="path2842-4"
       fill="#000000"
       strokeWidth="11" />
    <path
       d="m 154.84598,249.99236 a 5.0371594,5.0371594 0 0 1 -5.03716,5.03715 5.0371594,5.0371594 0 0 1 -5.03716,-5.03715 5.0371594,5.0371594 0 0 1 5.03716,-5.03716 5.0371594,5.0371594 0 0 1 5.03716,5.03716"
       id="path2842-9"
       fill="#000000"
       strokeWidth="11" />
    <path
       d="m 82.460164,252.79074 a 5.0371594,5.0371594 0 0 1 -5.03716,5.03716 5.0371594,5.0371594 0 0 1 -5.037159,-5.03716 5.0371594,5.0371594 0 0 1 5.037159,-5.03716 5.0371594,5.0371594 0 0 1 5.03716,5.03716"
       id="path2842-6"
       fill="#000000"
       strokeWidth="11" />
    <path
       d="m 55.408757,232.08244 a 5.0371594,5.0371594 0 0 1 -5.03716,5.03716 5.0371594,5.0371594 0 0 1 -5.037159,-5.03716 5.0371594,5.0371594 0 0 1 5.037159,-5.03716 5.0371594,5.0371594 0 0 1 5.03716,5.03716"
       id="path2842-03"
       fill="#000000"
       strokeWidth="11" />
    <path
       d="m 37.498856,204.6579 a 5.0371594,5.0371594 0 0 1 -5.037159,5.03716 5.0371594,5.0371594 0 0 1 -5.03716,-5.03716 5.0371594,5.0371594 0 0 1 5.03716,-5.03716 5.0371594,5.0371594 0 0 1 5.037159,5.03716"
       id="path2842-80"
       fill="#000000"
       strokeWidth="11"/>
    <path
       d="m 31.342314,171.2634 a 5.0371594,5.0371594 0 0 1 -5.037159,5.03716 5.0371594,5.0371594 0 0 1 -5.03716,-5.03716 5.0371594,5.0371594 0 0 1 5.03716,-5.03716 5.0371594,5.0371594 0 0 1 5.037159,5.03716"
       id="path2842-5"
       fill="#000000"
       strokeWidth="11" />
    <path
       d="m 37.312291,138.24202 a 5.0371594,5.0371594 0 0 1 -5.03716,5.03716 5.0371594,5.0371594 0 0 1 -5.037159,-5.03716 5.0371594,5.0371594 0 0 1 5.037159,-5.03716 5.0371594,5.0371594 0 0 1 5.03716,5.03716"
       id="path2842-83"
      fill="#000000"
       strokeWidth="11" />
    <path
       d="m 52.423771,111.56374 a 5.0371594,5.0371594 0 0 1 -5.037159,5.03716 5.0371594,5.0371594 0 0 1 -5.03716,-5.03716 5.0371594,5.0371594 0 0 1 5.03716,-5.03716 5.0371594,5.0371594 0 0 1 5.037159,5.03716"
       id="path2842-87"
      fill="#000000"
       strokeWidth="11" />
    <path
       d="m 80.967671,89.362923 a 5.0371594,5.0371594 0 0 1 -5.03716,5.037159 5.0371594,5.0371594 0 0 1 -5.037159,-5.037159 5.0371594,5.0371594 0 0 1 5.037159,-5.03716 5.0371594,5.0371594 0 0 1 5.03716,5.03716"
       id="path2842-82"
      fill="#000000"
       strokeWidth="11" />
    <path
       d="m 151.67446,89.176376 a 5.0371594,5.0371594 0 0 1 -5.03716,5.03716 5.0371594,5.0371594 0 0 1 -5.03716,-5.03716 5.0371594,5.0371594 0 0 1 5.03716,-5.037159 5.0371594,5.0371594 0 0 1 5.03716,5.037159"
       id="path2842-06"
      fill="#000000"
       strokeWidth="11" />
  </g>
</svg>
